<?xml version="1.0" encoding="UTF-8" standalone="no"?>
<!DOCTYPE svg PUBLIC "-//W3C//DTD SVG 1.1//EN"
 "http://www.w3.org/Graphics/SVG/1.1/DTD/svg11.dtd">
<!-- Generated by graphviz version 2.26.0 (20091210.2329)
 -->
<!-- Title: G Pages: 1 -->
<svg width="1173pt" height="155pt"
 viewBox="0.00 0.00 1173.00 155.00" xmlns="http://www.w3.org/2000/svg" xmlns:xlink="http://www.w3.org/1999/xlink">
<g id="graph1" class="graph" transform="scale(1 1) rotate(0) translate(4 151)">
<title>G</title>
<polygon fill="Gainsboro" stroke="Gainsboro" points="-4,5 -4,-151 1170,-151 1170,5 -4,5"/>
<text text-anchor="middle" x="582.5" y="-8" font-family="Verdana" font-size="10.00">Meeting Activities for Participatory Decision&#45;Making</text>
<g id="graph2" class="cluster"><title>cluster_0</title>
<polygon fill="DodgerBlue" stroke="DodgerBlue" points="8,-29 8,-139 520,-139 520,-29 8,-29"/>
<text text-anchor="middle" x="264" y="-126" font-family="Verdana" font-size="10.00">Divergent</text>
</g>
<g id="graph3" class="cluster"><title>cluster_Ideation</title>
<polygon fill="SkyBlue" stroke="SkyBlue" points="16,-37 16,-110 512,-110 512,-37 16,-37"/>
<text text-anchor="middle" x="264" y="-97" font-family="Verdana" font-size="10.00">Idea Generation and Mental Model Alignment</text>
</g>
<g id="graph4" class="cluster"><title>cluster_1</title>
<polygon fill="Yellow" stroke="Yellow" points="528,-29 528,-139 915,-139 915,-29 528,-29"/>
<text text-anchor="middle" x="721.5" y="-126" font-family="Verdana" font-size="10.00">Convergent</text>
</g>
<g id="graph5" class="cluster"><title>cluster_Creating_Agreement</title>
<polygon fill="Gold" stroke="Gold" points="734,-37 734,-110 907,-110 907,-37 734,-37"/>
<text text-anchor="middle" x="820.5" y="-97" font-family="Verdana" font-size="10.00">Creating agreement and Consensus</text>
</g>
<g id="graph6" class="cluster"><title>cluster_Sorting_Clustering</title>
<polygon fill="LemonChiffon" stroke="LemonChiffon" points="536,-37 536,-110 726,-110 726,-37 536,-37"/>
<text text-anchor="middle" x="631" y="-97" font-family="Verdana" font-size="10.00">Sorting and Clustering</text>
</g>
<g id="graph7" class="cluster"><title>cluster_2</title>
<polygon fill="SpringGreen" stroke="SpringGreen" points="923,-29 923,-139 1157,-139 1157,-29 923,-29"/>
<text text-anchor="middle" x="1040" y="-126" font-family="Verdana" font-size="10.00">Evaluation</text>
</g>
<g id="graph8" class="cluster"><title>cluster_Decision_Making</title>
<polygon fill="PaleGreen" stroke="PaleGreen" points="931,-37 931,-110 1149,-110 1149,-37 931,-37"/>
<text text-anchor="middle" x="1040" y="-97" font-family="Verdana" font-size="10.00">Decision Making and Generating Commitment</text>
</g>
<!-- RepGrid -->
<g id="node3" class="node"><title>RepGrid</title>
<polygon fill="SpringGreen" stroke="SpringGreen" points="504,-81 450,-81 450,-45 504,-45 504,-81"/>
<text text-anchor="middle" x="477" y="-60.5" font-family="Verdana" font-size="10.00">RepGrid</text>
</g>
<!-- Mind&#45;Concept Mapping -->
<g id="node4" class="node"><title>Mind&#45;Concept Mapping</title>
<polygon fill="LemonChiffon" stroke="LemonChiffon" points="432,-81 316,-81 316,-45 432,-45 432,-81"/>
<text text-anchor="middle" x="374" y="-60.5" font-family="Verdana" font-size="10.00">Mind&#45;Concept Mapping</text>
</g>
<!-- Five Whys -->
<g id="node5" class="node"><title>Five Whys</title>
<polygon fill="PowderBlue" stroke="PowderBlue" points="298,-81 234,-81 234,-45 298,-45 298,-81"/>
<text text-anchor="middle" x="266" y="-60.5" font-family="Verdana" font-size="10.00">Five Whys</text>
</g>
<!-- Brainwriting -->
<g id="node6" class="node"><title>Brainwriting</title>
<polygon fill="PowderBlue" stroke="PowderBlue" points="216,-81 148,-81 148,-45 216,-45 216,-81"/>
<text text-anchor="middle" x="182" y="-60.5" font-family="Verdana" font-size="10.00">Brainwriting</text>
</g>
<!-- 3&#45;12&#45;3 Brainstorming -->
<g id="node7" class="node"><title>3&#45;12&#45;3 Brainstorming</title>
<polygon fill="PowderBlue" stroke="PowderBlue" points="130,-81 24,-81 24,-45 130,-45 130,-81"/>
<text text-anchor="middle" x="77" y="-60.5" font-family="Verdana" font-size="10.00">3&#45;12&#45;3 Brainstorming</text>
</g>
<!-- Forced Ranking -->
<g id="node10" class="node"><title>Forced Ranking</title>
<polygon fill="PaleGreen" stroke="PaleGreen" points="863,-81 777,-81 777,-45 863,-45 863,-81"/>
<text text-anchor="middle" x="820" y="-60.5" font-family="Verdana" font-size="10.00">Forced Ranking</text>
</g>
<!-- Affinity Mapping -->
<g id="node12" class="node"><title>Affinity Mapping</title>
<polygon fill="Gold" stroke="Gold" points="718,-81 632,-81 632,-45 718,-45 718,-81"/>
<text text-anchor="middle" x="675" y="-60.5" font-family="Verdana" font-size="10.00">Affinity Mapping</text>
</g>
<!-- Card Sorting -->
<g id="node13" class="node"><title>Card Sorting</title>
<polygon fill="Gold" stroke="Gold" points="614,-81 544,-81 544,-45 614,-45 614,-81"/>
<text text-anchor="middle" x="579" y="-60.5" font-family="Verdana" font-size="10.00">Card Sorting</text>
</g>
<!-- Dot Voting -->
<g id="node16" class="node"><title>Dot Voting</title>
<polygon fill="SpringGreen" stroke="SpringGreen" points="1071,-81 1009,-81 1009,-45 1071,-45 1071,-81"/>
<text text-anchor="middle" x="1040" y="-60.5" font-family="Verdana" font-size="10.00">Dot Voting</text>
</g>
</g>

<g transform="translate(0.000000,17.000000) scale(0.100000,-0.100000)"
fill="#000000" stroke="none">
<path d="M21 157 c-29 -35 -16 -97 20 -97 15 0 19 -5 15 -16 -3 -9 -6 -20 -6
-25 0 -5 -4 -9 -10 -9 -14 0 -12 27 3 33 6 3 2 6 -10 6 -30 1 -31 -35 -3 -44
28 -9 47 9 55 51 3 20 9 42 12 50 3 8 -1 14 -11 14 -9 0 -16 -8 -16 -19 0 -26
-15 -34 -30 -16 -13 16 -6 48 16 70 14 13 13 15 -4 15 -11 0 -25 -6 -31 -13z"/>
<path d="M80 150 c0 -13 5 -20 13 -17 6 2 12 10 12 17 0 7 -6 15 -12 18 -8 2
-13 -5 -13 -18z"/>
<path d="M347 164 c-13 -13 -7 -24 14 -24 11 0 19 5 17 12 -5 14 -22 21 -31
12z"/>
<path d="M103 85 c-9 -40 -8 -45 8 -45 13 0 19 9 21 33 2 24 7 31 21 29 10 -2
17 3 17 13 0 10 -9 15 -28 15 -26 0 -30 -5 -39 -45z"/>
<path d="M175 101 c-24 -48 -13 -59 64 -60 63 -1 69 1 79 25 15 31 15 64 1 64
-6 0 -8 -8 -5 -18 4 -10 -1 -27 -10 -38 -14 -18 -15 -17 -9 19 5 29 3 37 -9
37 -9 0 -18 -13 -22 -35 -3 -19 -10 -35 -14 -35 -4 0 -4 16 0 35 8 35 8 35
-26 35 -27 0 -36 -6 -49 -29z m47 -6 c-5 -28 -22 -44 -22 -21 0 21 11 46 20
46 4 0 5 -11 2 -25z"/>
<path d="M340 116 c0 -7 -3 -28 -6 -45 -6 -26 -3 -31 13 -31 10 0 25 6 32 12
11 10 13 10 7 1 -5 -9 3 -13 28 -13 25 0 36 4 36 15 0 8 -4 15 -10 15 -5 0
-10 -4 -10 -10 0 -5 -5 -10 -11 -10 -6 0 -2 12 9 28 36 51 36 52 -2 52 -25 0
-36 -4 -36 -15 0 -8 5 -15 10 -15 6 0 10 5 10 12 0 6 3 9 6 6 9 -10 -19 -46
-39 -52 -17 -4 -18 -1 -13 30 6 27 4 34 -9 34 -8 0 -15 -6 -15 -14z"/>
<path d="M472 118 c-7 -7 -12 -27 -12 -46 0 -30 2 -33 27 -30 17 2 32 12 39
27 7 13 18 28 26 33 10 8 9 8 -4 4 -12 -3 -18 0 -18 9 0 18 -41 20 -58 3z m29
-51 c-13 -13 -15 11 -4 40 7 16 8 15 11 -6 2 -13 -1 -28 -7 -34z"/>
</g>
</svg>
