<?xml version="1.0" encoding="UTF-8" standalone="no"?>
<!DOCTYPE svg PUBLIC "-//W3C//DTD SVG 1.1//EN"
 "http://www.w3.org/Graphics/SVG/1.1/DTD/svg11.dtd">
<!-- Generated by graphviz version 2.38.0 (20140413.2041)
 -->
<!-- Title: G Pages: 1 -->
<svg width="716pt" height="116pt"
 viewBox="0.00 0.00 716.00 116.00" xmlns="http://www.w3.org/2000/svg" xmlns:xlink="http://www.w3.org/1999/xlink">
<g id="graph0" class="graph" transform="scale(1 1) rotate(0) translate(4 112)">
<title>G</title>
<polygon fill="DodgerBlue" stroke="none" points="-4,4 -4,-112 711.996,-112 711.996,4 -4,4"/>
<!-- Divergent -->
<g id="node1" class="node"><title>Divergent</title>
<polygon fill="SkyBlue" stroke="SkyBlue" points="430.817,-108 186.817,-108 186.817,-72 430.817,-72 430.817,-108"/>
<text text-anchor="middle" x="308.817" y="-87.5" font-family="Verdana" font-size="10.00">Idea Generation and Mental Model Alignment</text>
</g>
<!-- 3123 -->
<g id="node2" class="node"><title>3123</title>
<g id="a_node2"><a xlink:href="https://github.sydney.edu.au/crli/EDPC5022-2019/blob/master/resources/ActivityModels/3-12-3.md" xlink:title="3&#45;12&#45;3 Brainstorming">
<ellipse fill="PowderBlue" stroke="PowderBlue" cx="71.8169" cy="-18" rx="71.6342" ry="18"/>
<text text-anchor="middle" x="71.8169" y="-15.5" font-family="Verdana" font-size="10.00">3&#45;12&#45;3 Brainstorming</text>
</a>
</g>
</g>
<!-- Divergent&#45;&gt;3123 -->
<g id="edge1" class="edge"><title>Divergent&#45;&gt;3123</title>
<path fill="none" stroke="SkyBlue" stroke-width="3" stroke-dasharray="1,5" d="M251.143,-71.9656C213.033,-60.7093 163.406,-46.0517 126.023,-35.0103"/>
<polygon fill="SkyBlue" stroke="SkyBlue" stroke-width="3" points="126.893,-31.6179 116.312,-32.1419 124.911,-38.3312 126.893,-31.6179"/>
</g>
<!-- BW -->
<g id="node3" class="node"><title>BW</title>
<g id="a_node3"><a xlink:href="http://www.google.com" xlink:title="Brainwriting">
<ellipse fill="PowderBlue" stroke="PowderBlue" cx="206.817" cy="-18" rx="44.978" ry="18"/>
<text text-anchor="middle" x="206.817" y="-15.5" font-family="Verdana" font-size="10.00">Brainwriting</text>
</a>
</g>
</g>
<!-- Divergent&#45;&gt;BW -->
<g id="edge2" class="edge"><title>Divergent&#45;&gt;BW</title>
<path fill="none" stroke="SkyBlue" stroke-width="3" stroke-dasharray="1,5" d="M283.865,-71.8761C269.666,-62.1316 251.785,-49.8601 236.823,-39.5926"/>
<polygon fill="SkyBlue" stroke="SkyBlue" stroke-width="3" points="238.627,-36.5858 228.402,-33.8131 234.666,-42.3574 238.627,-36.5858"/>
</g>
<!-- FW -->
<g id="node4" class="node"><title>FW</title>
<g id="a_node4"><a xlink:href="https://github.sydney.edu.au/crli/EDPC5022-2019/blob/master/resources/ActivityModels/5-whys.md" xlink:title="Five Whys">
<ellipse fill="PowderBlue" stroke="PowderBlue" cx="308.817" cy="-18" rx="39.3809" ry="18"/>
<text text-anchor="middle" x="308.817" y="-15.5" font-family="Verdana" font-size="10.00">Five Whys</text>
</a>
</g>
</g>
<!-- Divergent&#45;&gt;FW -->
<g id="edge3" class="edge"><title>Divergent&#45;&gt;FW</title>
<path fill="none" stroke="SkyBlue" stroke-width="3" stroke-dasharray="1,5" d="M308.817,-71.6966C308.817,-63.9827 308.817,-54.7125 308.817,-46.1124"/>
<polygon fill="SkyBlue" stroke="SkyBlue" stroke-width="3" points="312.317,-46.1043 308.817,-36.1043 305.317,-46.1044 312.317,-46.1043"/>
</g>
<!-- MCM -->
<g id="node5" class="node"><title>MCM</title>
<g id="a_node5"><a xlink:href="https://www.mindmeister.com/" xlink:title="Mind&#45;Concept Mapping">
<ellipse fill="LemonChiffon" stroke="LemonChiffon" cx="443.817" cy="-18" rx="77.9076" ry="18"/>
<text text-anchor="middle" x="443.817" y="-15.5" font-family="Verdana" font-size="10.00">Mind&#45;Concept Mapping</text>
</a>
</g>
</g>
<!-- Divergent&#45;&gt;MCM -->
<g id="edge4" class="edge"><title>Divergent&#45;&gt;MCM</title>
<path fill="none" stroke="SkyBlue" stroke-width="3" stroke-dasharray="1,5" d="M341.842,-71.8761C360.71,-62.0924 384.491,-49.7613 404.341,-39.4688"/>
<polygon fill="SkyBlue" stroke="SkyBlue" stroke-width="3" points="406.175,-42.4606 413.441,-34.7503 402.953,-36.2463 406.175,-42.4606"/>
</g>
<!-- RepGrid -->
<g id="node6" class="node"><title>RepGrid</title>
<g id="a_node6"><a xlink:href="http://grid.eilab.ca" xlink:title="Repertory Grid Technique">
<ellipse fill="SpringGreen" stroke="SpringGreen" cx="623.817" cy="-18" rx="84.358" ry="18"/>
<text text-anchor="middle" x="623.817" y="-15.5" font-family="Verdana" font-size="10.00">Repertory Grid Technique</text>
</a>
</g>
</g>
<!-- Divergent&#45;&gt;RepGrid -->
<g id="edge5" class="edge"><title>Divergent&#45;&gt;RepGrid</title>
<path fill="none" stroke="SkyBlue" stroke-width="3" stroke-dasharray="1,5" d="M385.472,-71.9656C438.227,-60.2422 507.585,-44.8293 557.87,-33.6548"/>
<polygon fill="SkyBlue" stroke="SkyBlue" stroke-width="3" points="558.66,-37.0649 567.662,-31.4788 557.141,-30.2315 558.66,-37.0649"/>
</g>
</g>
</svg>
