<?xml version="1.0" encoding="UTF-8" standalone="no"?><svg xmlns="http://www.w3.org/2000/svg" xmlns:xlink="http://www.w3.org/1999/xlink" contentScriptType="application/ecmascript" contentStyleType="text/css" height="776px" preserveAspectRatio="none" style="width:1612px;height:776px;" version="1.1" viewBox="0 0 1612 776" width="1612px" zoomAndPan="magnify"><defs><filter height="300%" id="fquays7" width="300%" x="-1" y="-1"><feGaussianBlur result="blurOut" stdDeviation="2.0"/><feColorMatrix in="blurOut" result="blurOut2" type="matrix" values="0 0 0 0 0 0 0 0 0 0 0 0 0 0 0 0 0 0 .4 0"/><feOffset dx="4.0" dy="4.0" in="blurOut2" result="blurOut3"/><feBlend in="SourceGraphic" in2="blurOut3" mode="normal"/></filter></defs><g><line style="stroke: #A80036; stroke-width: 1.0; stroke-dasharray: 5.0,5.0;" x1="65" x2="65" y1="86.29" y2="692.1987"/><line style="stroke: #A80036; stroke-width: 1.0; stroke-dasharray: 5.0,5.0;" x1="187" x2="187" y1="86.29" y2="692.1987"/><line style="stroke: #A80036; stroke-width: 1.0; stroke-dasharray: 5.0,5.0;" x1="394" x2="394" y1="86.29" y2="692.1987"/><line style="stroke: #A80036; stroke-width: 1.0; stroke-dasharray: 5.0,5.0;" x1="690" x2="690" y1="86.29" y2="692.1987"/><line style="stroke: #A80036; stroke-width: 1.0; stroke-dasharray: 5.0,5.0;" x1="897" x2="897" y1="86.29" y2="692.1987"/><line style="stroke: #A80036; stroke-width: 1.0; stroke-dasharray: 5.0,5.0;" x1="993" x2="993" y1="86.29" y2="692.1987"/><line style="stroke: #A80036; stroke-width: 1.0; stroke-dasharray: 5.0,5.0;" x1="1069" x2="1069" y1="86.29" y2="692.1987"/><line style="stroke: #A80036; stroke-width: 1.0; stroke-dasharray: 5.0,5.0;" x1="1330.5" x2="1330.5" y1="86.29" y2="692.1987"/><line style="stroke: #A80036; stroke-width: 1.0; stroke-dasharray: 5.0,5.0;" x1="1443.5" x2="1443.5" y1="86.29" y2="692.1987"/><line style="stroke: #A80036; stroke-width: 1.0; stroke-dasharray: 5.0,5.0;" x1="1554.5" x2="1554.5" y1="86.29" y2="692.1987"/><text fill="#000000" font-family="sans-serif" font-size="14" lengthAdjust="spacingAndGlyphs" textLength="108" x="8" y="83.3027">Team_Members</text><ellipse cx="65" cy="13" fill="#0099CC" filter="url(#fquays7)" rx="8" ry="8" style="stroke: #FFFFFF; stroke-width: 2.0;"/><path d="M65,21 L65,48 M52,29 L78,29 M65,48 L52,63 M65,48 L78,63 " fill="#0099CC" filter="url(#fquays7)" style="stroke: #FFFFFF; stroke-width: 2.0;"/><text fill="#000000" font-family="sans-serif" font-size="14" lengthAdjust="spacingAndGlyphs" textLength="108" x="8" y="704.5015">Team_Members</text><ellipse cx="65" cy="717.4888" fill="#0099CC" filter="url(#fquays7)" rx="8" ry="8" style="stroke: #FFFFFF; stroke-width: 2.0;"/><path d="M65,725.4888 L65,752.4888 M52,733.4888 L78,733.4888 M65,752.4888 L52,767.4888 M65,752.4888 L78,767.4888 " fill="#0099CC" filter="url(#fquays7)" style="stroke: #FFFFFF; stroke-width: 2.0;"/><text fill="#000000" font-family="sans-serif" font-size="14" lengthAdjust="spacingAndGlyphs" textLength="105" x="132" y="83.3027">Peer_Facilitator</text><ellipse cx="187.5" cy="13" fill="#CC0000" filter="url(#fquays7)" rx="8" ry="8" style="stroke: #FFFFFF; stroke-width: 2.0;"/><path d="M187.5,21 L187.5,48 M174.5,29 L200.5,29 M187.5,48 L174.5,63 M187.5,48 L200.5,63 " fill="#CC0000" filter="url(#fquays7)" style="stroke: #FFFFFF; stroke-width: 2.0;"/><text fill="#000000" font-family="sans-serif" font-size="14" lengthAdjust="spacingAndGlyphs" textLength="105" x="132" y="704.5015">Peer_Facilitator</text><ellipse cx="187.5" cy="717.4888" fill="#CC0000" filter="url(#fquays7)" rx="8" ry="8" style="stroke: #FFFFFF; stroke-width: 2.0;"/><path d="M187.5,725.4888 L187.5,752.4888 M174.5,733.4888 L200.5,733.4888 M187.5,752.4888 L174.5,767.4888 M187.5,752.4888 L200.5,767.4888 " fill="#CC0000" filter="url(#fquays7)" style="stroke: #FFFFFF; stroke-width: 2.0;"/><text fill="#000000" font-family="sans-serif" font-size="14" lengthAdjust="spacingAndGlyphs" textLength="276" x="253" y="83.3027">Peer_Knowledge_Manager_Synchronous</text><ellipse cx="394" cy="13" fill="#FFCC00" filter="url(#fquays7)" rx="8" ry="8" style="stroke: #FFFFFF; stroke-width: 2.0;"/><path d="M394,21 L394,48 M381,29 L407,29 M394,48 L381,63 M394,48 L407,63 " fill="#FFCC00" filter="url(#fquays7)" style="stroke: #FFFFFF; stroke-width: 2.0;"/><text fill="#000000" font-family="sans-serif" font-size="14" lengthAdjust="spacingAndGlyphs" textLength="276" x="253" y="704.5015">Peer_Knowledge_Manager_Synchronous</text><ellipse cx="394" cy="717.4888" fill="#FFCC00" filter="url(#fquays7)" rx="8" ry="8" style="stroke: #FFFFFF; stroke-width: 2.0;"/><path d="M394,725.4888 L394,752.4888 M381,733.4888 L407,733.4888 M394,752.4888 L381,767.4888 M394,752.4888 L407,767.4888 " fill="#FFCC00" filter="url(#fquays7)" style="stroke: #FFFFFF; stroke-width: 2.0;"/><text fill="#000000" font-family="sans-serif" font-size="14" lengthAdjust="spacingAndGlyphs" textLength="285" x="545" y="83.3027">Peer_Knowledge_Manager_Asynchronous</text><ellipse cx="690.5" cy="13" fill="#33CC33" filter="url(#fquays7)" rx="8" ry="8" style="stroke: #FFFFFF; stroke-width: 2.0;"/><path d="M690.5,21 L690.5,48 M677.5,29 L703.5,29 M690.5,48 L677.5,63 M690.5,48 L703.5,63 " fill="#33CC33" filter="url(#fquays7)" style="stroke: #FFFFFF; stroke-width: 2.0;"/><text fill="#000000" font-family="sans-serif" font-size="14" lengthAdjust="spacingAndGlyphs" textLength="285" x="545" y="704.5015">Peer_Knowledge_Manager_Asynchronous</text><ellipse cx="690.5" cy="717.4888" fill="#33CC33" filter="url(#fquays7)" rx="8" ry="8" style="stroke: #FFFFFF; stroke-width: 2.0;"/><path d="M690.5,725.4888 L690.5,752.4888 M677.5,733.4888 L703.5,733.4888 M690.5,752.4888 L677.5,767.4888 M690.5,752.4888 L703.5,767.4888 " fill="#33CC33" filter="url(#fquays7)" style="stroke: #FFFFFF; stroke-width: 2.0;"/><text fill="#000000" font-family="sans-serif" font-size="14" lengthAdjust="spacingAndGlyphs" textLength="97" x="846" y="83.3027">Peer_Modeller</text><ellipse cx="897.5" cy="13" fill="#CC66FF" filter="url(#fquays7)" rx="8" ry="8" style="stroke: #FFFFFF; stroke-width: 2.0;"/><path d="M897.5,21 L897.5,48 M884.5,29 L910.5,29 M897.5,48 L884.5,63 M897.5,48 L910.5,63 " fill="#CC66FF" filter="url(#fquays7)" style="stroke: #FFFFFF; stroke-width: 2.0;"/><text fill="#000000" font-family="sans-serif" font-size="14" lengthAdjust="spacingAndGlyphs" textLength="97" x="846" y="704.5015">Peer_Modeller</text><ellipse cx="897.5" cy="717.4888" fill="#CC66FF" filter="url(#fquays7)" rx="8" ry="8" style="stroke: #FFFFFF; stroke-width: 2.0;"/><path d="M897.5,725.4888 L897.5,752.4888 M884.5,733.4888 L910.5,733.4888 M897.5,752.4888 L884.5,767.4888 M897.5,752.4888 L910.5,767.4888 " fill="#CC66FF" filter="url(#fquays7)" style="stroke: #FFFFFF; stroke-width: 2.0;"/><rect fill="#FEFECE" filter="url(#fquays7)" height="30.29" style="stroke: #A80036; stroke-width: 1.5;" width="64" x="959" y="51"/><text fill="#000000" font-family="sans-serif" font-size="14" lengthAdjust="spacingAndGlyphs" textLength="50" x="966" y="71.3027">In class</text><rect fill="#FEFECE" filter="url(#fquays7)" height="30.29" style="stroke: #A80036; stroke-width: 1.5;" width="64" x="959" y="691.1987"/><text fill="#000000" font-family="sans-serif" font-size="14" lengthAdjust="spacingAndGlyphs" textLength="50" x="966" y="711.5015">In class</text><rect fill="#FEFECE" filter="url(#fquays7)" height="30.29" style="stroke: #A80036; stroke-width: 1.5;" width="61" x="1037" y="51"/><text fill="#000000" font-family="sans-serif" font-size="14" lengthAdjust="spacingAndGlyphs" textLength="47" x="1044" y="71.3027">GitHub</text><rect fill="#FEFECE" filter="url(#fquays7)" height="30.29" style="stroke: #A80036; stroke-width: 1.5;" width="61" x="1037" y="691.1987"/><text fill="#000000" font-family="sans-serif" font-size="14" lengthAdjust="spacingAndGlyphs" textLength="47" x="1044" y="711.5015">GitHub</text><rect fill="#FEFECE" filter="url(#fquays7)" height="30.29" style="stroke: #A80036; stroke-width: 1.5;" width="146" x="1255.5" y="51"/><text fill="#000000" font-family="sans-serif" font-size="14" lengthAdjust="spacingAndGlyphs" textLength="132" x="1262.5" y="71.3027">UML .md document</text><rect fill="#FEFECE" filter="url(#fquays7)" height="30.29" style="stroke: #A80036; stroke-width: 1.5;" width="146" x="1255.5" y="691.1987"/><text fill="#000000" font-family="sans-serif" font-size="14" lengthAdjust="spacingAndGlyphs" textLength="132" x="1262.5" y="711.5015">UML .md document</text><rect fill="#FEFECE" filter="url(#fquays7)" height="30.29" style="stroke: #A80036; stroke-width: 1.5;" width="53" x="1415.5" y="51"/><text fill="#000000" font-family="sans-serif" font-size="14" lengthAdjust="spacingAndGlyphs" textLength="39" x="1422.5" y="71.3027">Zoom</text><rect fill="#FEFECE" filter="url(#fquays7)" height="30.29" style="stroke: #A80036; stroke-width: 1.5;" width="53" x="1415.5" y="691.1987"/><text fill="#000000" font-family="sans-serif" font-size="14" lengthAdjust="spacingAndGlyphs" textLength="39" x="1422.5" y="711.5015">Zoom</text><rect fill="#FEFECE" filter="url(#fquays7)" height="30.29" style="stroke: #A80036; stroke-width: 1.5;" width="101" x="1502.5" y="51"/><text fill="#000000" font-family="sans-serif" font-size="14" lengthAdjust="spacingAndGlyphs" textLength="87" x="1509.5" y="71.3027">User PC/Mac</text><rect fill="#FEFECE" filter="url(#fquays7)" height="30.29" style="stroke: #A80036; stroke-width: 1.5;" width="101" x="1502.5" y="691.1987"/><text fill="#000000" font-family="sans-serif" font-size="14" lengthAdjust="spacingAndGlyphs" textLength="87" x="1509.5" y="711.5015">User PC/Mac</text><polygon fill="#0099CC" points="981,113.29,991,117.29,981,121.29,985,117.29" style="stroke: #0099CC; stroke-width: 1.0;"/><line style="stroke: #0099CC; stroke-width: 1.0; stroke-dasharray: 2.0,2.0;" x1="65" x2="987" y1="117.29" y2="117.29"/><text fill="#000000" font-family="sans-serif" font-size="13" lengthAdjust="spacingAndGlyphs" textLength="33" x="72" y="112.6426">use a</text><a target="_top" xlink:actuate="onRequest" xlink:href="https://www.random.org/sequences/" xlink:show="new" xlink:title="link to example" xlink:type="simple"><text fill="#0000FF" font-family="sans-serif" font-size="13" lengthAdjust="spacingAndGlyphs" text-decoration="underline" textLength="175" x="109" y="112.6426">random sequence generator</text><line style="stroke: #0000FF; stroke-width: 1.0;" x1="109" x2="284" y1="114.6426" y2="114.6426"/></a><text fill="#000000" font-family="sans-serif" font-size="13" lengthAdjust="spacingAndGlyphs" textLength="548" x="288" y="112.6426">to assign initial roles for the first meeting four defined roles and others as participants</text><polygon fill="#CC0000" points="1318.5,142.4165,1328.5,146.4165,1318.5,150.4165,1322.5,146.4165" style="stroke: #CC0000; stroke-width: 1.0;"/><line style="stroke: #CC0000; stroke-width: 1.0; stroke-dasharray: 2.0,2.0;" x1="187.5" x2="1324.5" y1="146.4165" y2="146.4165"/><text fill="#000000" font-family="sans-serif" font-size="13" lengthAdjust="spacingAndGlyphs" textLength="1013" x="194.5" y="141.769">Before first meeting only: Peer Facilitator 1 creates a facilitation roster where each team member acts in a different role each week (this will depend on team size)</text><polygon fill="#CC0000" points="1080.5,171.543,1070.5,175.543,1080.5,179.543,1076.5,175.543" style="stroke: #CC0000; stroke-width: 1.0;"/><line style="stroke: #CC0000; stroke-width: 1.0; stroke-dasharray: 2.0,2.0;" x1="1074.5" x2="1329.5" y1="175.543" y2="175.543"/><text fill="#000000" font-family="sans-serif" font-size="13" lengthAdjust="spacingAndGlyphs" textLength="196" x="1086.5" y="170.8955">upload facilitation roster to GH</text><polygon fill="#CC0000" points="1318.5,200.6694,1328.5,204.6694,1318.5,208.6694,1322.5,204.6694" style="stroke: #CC0000; stroke-width: 1.0;"/><line style="stroke: #CC0000; stroke-width: 1.0; stroke-dasharray: 2.0,2.0;" x1="187.5" x2="1324.5" y1="204.6694" y2="204.6694"/><text fill="#000000" font-family="sans-serif" font-size="13" lengthAdjust="spacingAndGlyphs" textLength="228" x="194.5" y="200.022">create a meeting plan from template</text><polygon fill="#CC0000" points="1080.5,229.7959,1070.5,233.7959,1080.5,237.7959,1076.5,233.7959" style="stroke: #CC0000; stroke-width: 1.0;"/><line style="stroke: #CC0000; stroke-width: 1.0; stroke-dasharray: 2.0,2.0;" x1="1074.5" x2="1329.5" y1="233.7959" y2="233.7959"/><text fill="#000000" font-family="sans-serif" font-size="13" lengthAdjust="spacingAndGlyphs" textLength="114" x="1086.5" y="229.1484">upload plan to GH</text><polygon fill="#FFCC00" points="1057.5,258.9224,1067.5,262.9224,1057.5,266.9224,1061.5,262.9224" style="stroke: #FFCC00; stroke-width: 1.0;"/><line style="stroke: #FFCC00; stroke-width: 1.0; stroke-dasharray: 2.0,2.0;" x1="394" x2="1063.5" y1="262.9224" y2="262.9224"/><text fill="#000000" font-family="sans-serif" font-size="13" lengthAdjust="spacingAndGlyphs" textLength="296" x="401" y="258.2749">create meeting record document based on plan</text><polygon fill="#CC0000" points="1432,288.0488,1442,292.0488,1432,296.0488,1436,292.0488" style="stroke: #CC0000; stroke-width: 1.0;"/><line style="stroke: #CC0000; stroke-width: 1.0;" x1="187.5" x2="1438" y1="292.0488" y2="292.0488"/><text fill="#000000" font-family="sans-serif" font-size="13" lengthAdjust="spacingAndGlyphs" textLength="132" x="194.5" y="287.4014">run meeting in Zoom</text><polygon fill="#0099CC" points="1432,317.1753,1442,321.1753,1432,325.1753,1436,321.1753" style="stroke: #0099CC; stroke-width: 1.0;"/><line style="stroke: #0099CC; stroke-width: 1.0;" x1="65" x2="1438" y1="321.1753" y2="321.1753"/><text fill="#000000" font-family="sans-serif" font-size="13" lengthAdjust="spacingAndGlyphs" textLength="138" x="72" y="316.5278">participate in meeting</text><polygon fill="#FFCC00" points="1057.5,346.3018,1067.5,350.3018,1057.5,354.3018,1061.5,350.3018" style="stroke: #FFCC00; stroke-width: 1.0;"/><line style="stroke: #FFCC00; stroke-width: 1.0;" x1="394" x2="1063.5" y1="350.3018" y2="350.3018"/><text fill="#000000" font-family="sans-serif" font-size="13" lengthAdjust="spacingAndGlyphs" textLength="166" x="401" y="345.6543">take notes during meeting</text><polygon fill="#CC66FF" points="1318.5,405.4282,1328.5,409.4282,1318.5,413.4282,1322.5,409.4282" style="stroke: #CC66FF; stroke-width: 1.0;"/><line style="stroke: #CC66FF; stroke-width: 1.0;" x1="897.5" x2="1324.5" y1="409.4282" y2="409.4282"/><text fill="#000000" font-family="sans-serif" font-size="13" lengthAdjust="spacingAndGlyphs" textLength="172" x="904.5" y="374.7808">update meeting plan model</text><text fill="#000000" font-family="sans-serif" font-size="13" lengthAdjust="spacingAndGlyphs" textLength="184" x="904.5" y="389.9072">and/or shared representation</text><text fill="#000000" font-family="sans-serif" font-size="13" lengthAdjust="spacingAndGlyphs" textLength="96" x="904.5" y="405.0337">during meeting</text><polygon fill="#FFCC00" points="1057.5,434.8076,1067.5,438.8076,1057.5,442.8076,1061.5,438.8076" style="stroke: #FFCC00; stroke-width: 1.0;"/><line style="stroke: #FFCC00; stroke-width: 1.0;" x1="394" x2="1063.5" y1="438.8076" y2="438.8076"/><text fill="#000000" font-family="sans-serif" font-size="13" lengthAdjust="spacingAndGlyphs" textLength="123" x="401" y="434.1602">assign action items</text><polygon fill="#CC0000" points="1543,478.9341,1553,482.9341,1543,486.9341,1547,482.9341" style="stroke: #CC0000; stroke-width: 1.0;"/><line style="stroke: #CC0000; stroke-width: 1.0;" x1="1444" x2="1549" y1="482.9341" y2="482.9341"/><text fill="#000000" font-family="sans-serif" font-size="13" lengthAdjust="spacingAndGlyphs" textLength="83" x="1451" y="463.2866">save meeting</text><text fill="#000000" font-family="sans-serif" font-size="13" lengthAdjust="spacingAndGlyphs" textLength="60" x="1451" y="478.4131">recording</text><polygon fill="#CC0000" points="1080.5,523.187,1070.5,527.187,1080.5,531.187,1076.5,527.187" style="stroke: #CC0000; stroke-width: 1.0;"/><line style="stroke: #CC0000; stroke-width: 1.0; stroke-dasharray: 2.0,2.0;" x1="1074.5" x2="1554" y1="527.187" y2="527.187"/><text fill="#000000" font-family="sans-serif" font-size="13" lengthAdjust="spacingAndGlyphs" textLength="162" x="1086.5" y="507.5396">upload meeting recording</text><text fill="#000000" font-family="sans-serif" font-size="13" lengthAdjust="spacingAndGlyphs" textLength="135" x="1086.5" y="522.666">to meeting document</text><polygon fill="#33CC33" points="1318.5,552.4399,1328.5,556.4399,1318.5,560.4399,1322.5,556.4399" style="stroke: #33CC33; stroke-width: 1.0;"/><line style="stroke: #33CC33; stroke-width: 1.0; stroke-dasharray: 2.0,2.0;" x1="690.5" x2="1324.5" y1="556.4399" y2="556.4399"/><text fill="#000000" font-family="sans-serif" font-size="13" lengthAdjust="spacingAndGlyphs" textLength="507" x="697.5" y="551.7925">review meeting recording against meeting plan, notes and assigned action items</text><polygon fill="#33CC33" points="1080.5,611.5664,1070.5,615.5664,1080.5,619.5664,1076.5,615.5664" style="stroke: #33CC33; stroke-width: 1.0;"/><line style="stroke: #33CC33; stroke-width: 1.0; stroke-dasharray: 2.0,2.0;" x1="1074.5" x2="1329.5" y1="615.5664" y2="615.5664"/><text fill="#000000" font-family="sans-serif" font-size="13" lengthAdjust="spacingAndGlyphs" textLength="165" x="1086.5" y="580.9189">modify meeting notes and</text><text fill="#000000" font-family="sans-serif" font-size="13" lengthAdjust="spacingAndGlyphs" textLength="233" x="1086.5" y="596.0454">assigned issues with GH annotations</text><text fill="#000000" font-family="sans-serif" font-size="13" lengthAdjust="spacingAndGlyphs" textLength="141" x="1086.5" y="611.1719">that describe rationale</text><polygon fill="#CC66FF" points="1318.5,640.9458,1328.5,644.9458,1318.5,648.9458,1322.5,644.9458" style="stroke: #CC66FF; stroke-width: 1.0;"/><line style="stroke: #CC66FF; stroke-width: 1.0; stroke-dasharray: 2.0,2.0;" x1="897.5" x2="1324.5" y1="644.9458" y2="644.9458"/><text fill="#000000" font-family="sans-serif" font-size="13" lengthAdjust="spacingAndGlyphs" textLength="275" x="904.5" y="640.2983">update model after notes &amp; issues modified</text><polygon fill="#0099CC" points="1057.5,670.0723,1067.5,674.0723,1057.5,678.0723,1061.5,674.0723" style="stroke: #0099CC; stroke-width: 1.0;"/><line style="stroke: #0099CC; stroke-width: 1.0; stroke-dasharray: 2.0,2.0;" x1="65" x2="1063.5" y1="674.0723" y2="674.0723"/><text fill="#000000" font-family="sans-serif" font-size="13" lengthAdjust="spacingAndGlyphs" textLength="253" x="72" y="669.4248">complete assigned tasks and update GH</text></g>
<g transform="translate(0.000000,17.000000) scale(0.100000,-0.100000)"
fill="#000000" stroke="none">
<path d="M21 157 c-29 -35 -16 -97 20 -97 15 0 19 -5 15 -16 -3 -9 -6 -20 -6
-25 0 -5 -4 -9 -10 -9 -14 0 -12 27 3 33 6 3 2 6 -10 6 -30 1 -31 -35 -3 -44
28 -9 47 9 55 51 3 20 9 42 12 50 3 8 -1 14 -11 14 -9 0 -16 -8 -16 -19 0 -26
-15 -34 -30 -16 -13 16 -6 48 16 70 14 13 13 15 -4 15 -11 0 -25 -6 -31 -13z"/>
<path d="M80 150 c0 -13 5 -20 13 -17 6 2 12 10 12 17 0 7 -6 15 -12 18 -8 2
-13 -5 -13 -18z"/>
<path d="M347 164 c-13 -13 -7 -24 14 -24 11 0 19 5 17 12 -5 14 -22 21 -31
12z"/>
<path d="M103 85 c-9 -40 -8 -45 8 -45 13 0 19 9 21 33 2 24 7 31 21 29 10 -2
17 3 17 13 0 10 -9 15 -28 15 -26 0 -30 -5 -39 -45z"/>
<path d="M175 101 c-24 -48 -13 -59 64 -60 63 -1 69 1 79 25 15 31 15 64 1 64
-6 0 -8 -8 -5 -18 4 -10 -1 -27 -10 -38 -14 -18 -15 -17 -9 19 5 29 3 37 -9
37 -9 0 -18 -13 -22 -35 -3 -19 -10 -35 -14 -35 -4 0 -4 16 0 35 8 35 8 35
-26 35 -27 0 -36 -6 -49 -29z m47 -6 c-5 -28 -22 -44 -22 -21 0 21 11 46 20
46 4 0 5 -11 2 -25z"/>
<path d="M340 116 c0 -7 -3 -28 -6 -45 -6 -26 -3 -31 13 -31 10 0 25 6 32 12
11 10 13 10 7 1 -5 -9 3 -13 28 -13 25 0 36 4 36 15 0 8 -4 15 -10 15 -5 0
-10 -4 -10 -10 0 -5 -5 -10 -11 -10 -6 0 -2 12 9 28 36 51 36 52 -2 52 -25 0
-36 -4 -36 -15 0 -8 5 -15 10 -15 6 0 10 5 10 12 0 6 3 9 6 6 9 -10 -19 -46
-39 -52 -17 -4 -18 -1 -13 30 6 27 4 34 -9 34 -8 0 -15 -6 -15 -14z"/>
<path d="M472 118 c-7 -7 -12 -27 -12 -46 0 -30 2 -33 27 -30 17 2 32 12 39
27 7 13 18 28 26 33 10 8 9 8 -4 4 -12 -3 -18 0 -18 9 0 18 -41 20 -58 3z m29
-51 c-13 -13 -15 11 -4 40 7 16 8 15 11 -6 2 -13 -1 -28 -7 -34z"/>
</g>
</svg>
