<?xml version="1.0" encoding="UTF-8" standalone="no"?>
<!DOCTYPE svg PUBLIC "-//W3C//DTD SVG 1.1//EN"
 "http://www.w3.org/Graphics/SVG/1.1/DTD/svg11.dtd">
<!-- Generated by graphviz version 2.26.0 (20091210.2329)
 -->
<!-- Title: Cluster Pages: 1 -->
<svg width="1048pt" height="859pt"
 viewBox="0.00 0.00 1048.00 859.00" xmlns="http://www.w3.org/2000/svg" xmlns:xlink="http://www.w3.org/1999/xlink">
<g id="graph1" class="graph" transform="scale(1 1) rotate(0) translate(4 855)">
<title>Cluster</title>
<polygon fill="white" stroke="white" points="-4,5 -4,-855 1045,-855 1045,5 -4,5"/>
<g id="graph2" class="cluster"><title>cluster1</title>
<polygon fill="none" stroke="black" points="238,-62 238,-681 616,-681 616,-62 238,-62"/>
<text text-anchor="middle" x="427" y="-664.4" font-family="Times Roman,serif" font-size="14.00">Topics</text>
</g>
<g id="graph4" class="cluster"><title>cluster2</title>
<polygon fill="none" stroke="red" points="636,-8 636,-843 1032,-843 1032,-8 636,-8"/>
<text text-anchor="middle" x="834" y="-826.4" font-family="Times Roman,serif" font-size="14.00">Works</text>
</g>
<!-- Introduction_to_course_technology -->
<g id="node1" class="node"><title>Introduction_to_course_technology</title>
<polygon fill="gainsboro" stroke="black" points="209,-376 1,-376 1,-340 209,-340 209,-376"/>
<text text-anchor="middle" x="105" y="-354.9" font-family="Times Roman,serif" font-size="14.00">Introduction_to_course_technology</text>
</g>
<!-- Weekly_Readings -->
<g id="node3" class="node"><title>Weekly_Readings</title>
<polygon fill="lightgrey" stroke="black" points="362,-376 246,-376 246,-340 362,-340 362,-376"/>
<text text-anchor="middle" x="304" y="-354.9" font-family="Times Roman,serif" font-size="14.00">Weekly_Readings</text>
</g>
<!-- Introduction_to_course_technology&#45;&gt;Weekly_Readings -->
<g id="edge2" class="edge"><title>Introduction_to_course_technology&#45;&gt;Weekly_Readings</title>
<path fill="none" stroke="black" d="M209.745,-358C218.599,-358 227.397,-358 235.858,-358"/>
<polygon fill="black" stroke="black" points="235.993,-361.5 245.993,-358 235.993,-354.5 235.993,-361.5"/>
</g>
<!-- Designs_as_Knowledge_Objects -->
<g id="node7" class="node"><title>Designs_as_Knowledge_Objects</title>
<polygon fill="lavender" stroke="black" points="600,-106 406,-106 406,-70 600,-70 600,-106"/>
<text text-anchor="middle" x="503" y="-84.9" font-family="Times Roman,serif" font-size="14.00">Designs_as_Knowledge_Objects</text>
</g>
<!-- Weekly_Readings&#45;&gt;Designs_as_Knowledge_Objects -->
<g id="edge6" class="edge"><title>Weekly_Readings&#45;&gt;Designs_as_Knowledge_Objects</title>
<path fill="none" stroke="black" d="M305.488,-339.916C310.2,-294.792 328.865,-176.459 398,-115 399.306,-113.839 400.655,-112.727 402.042,-111.662"/>
<polygon fill="black" stroke="black" points="404.031,-114.542 410.375,-106.057 400.124,-108.734 404.031,-114.542"/>
</g>
<!-- Instructional_Design -->
<g id="node8" class="node"><title>Instructional_Design</title>
<polygon fill="lightsalmon" stroke="black" points="568,-160 438,-160 438,-124 568,-124 568,-160"/>
<text text-anchor="middle" x="503" y="-138.9" font-family="Times Roman,serif" font-size="14.00">Instructional_Design</text>
</g>
<!-- Weekly_Readings&#45;&gt;Instructional_Design -->
<g id="edge7" class="edge"><title>Weekly_Readings&#45;&gt;Instructional_Design</title>
<path fill="none" stroke="black" d="M307.736,-339.749C316.47,-301.858 341.886,-214.422 398,-169 406.826,-161.856 417.323,-156.579 428.214,-152.687"/>
<polygon fill="black" stroke="black" points="429.391,-155.985 437.854,-149.611 427.263,-149.317 429.391,-155.985"/>
</g>
<!-- Design_Representations_Overview -->
<g id="node9" class="node"><title>Design_Representations_Overview</title>
<polygon fill="gold" stroke="black" points="607,-214 399,-214 399,-178 607,-178 607,-214"/>
<text text-anchor="middle" x="503" y="-192.9" font-family="Times Roman,serif" font-size="14.00">Design_Representations_Overview</text>
</g>
<!-- Weekly_Readings&#45;&gt;Design_Representations_Overview -->
<g id="edge8" class="edge"><title>Weekly_Readings&#45;&gt;Design_Representations_Overview</title>
<path fill="none" stroke="black" d="M311.667,-339.563C324.841,-310.221 354.607,-253.143 398,-223 400.13,-221.52 402.336,-220.121 404.602,-218.799"/>
<polygon fill="black" stroke="black" points="406.384,-221.816 413.613,-214.07 403.131,-215.618 406.384,-221.816"/>
</g>
<!-- Design_Patterns -->
<g id="node10" class="node"><title>Design_Patterns</title>
<polygon fill="#b3ee3a" stroke="black" points="555,-268 451,-268 451,-232 555,-232 555,-268"/>
<text text-anchor="middle" x="503" y="-246.9" font-family="Times Roman,serif" font-size="14.00">Design_Patterns</text>
</g>
<!-- Weekly_Readings&#45;&gt;Design_Patterns -->
<g id="edge9" class="edge"><title>Weekly_Readings&#45;&gt;Design_Patterns</title>
<path fill="none" stroke="black" d="M320.203,-339.794C337.642,-321.305 367.069,-293.161 398,-277 411.08,-270.166 425.997,-264.985 440.4,-261.086"/>
<polygon fill="black" stroke="black" points="441.426,-264.437 450.259,-258.587 439.706,-257.652 441.426,-264.437"/>
</g>
<!-- Educational_Modelling_Languages -->
<g id="node11" class="node"><title>Educational_Modelling_Languages</title>
<polygon fill="darkkhaki" stroke="black" points="608,-322 398,-322 398,-286 608,-286 608,-322"/>
<text text-anchor="middle" x="503" y="-300.9" font-family="Times Roman,serif" font-size="14.00">Educational_Modelling_Languages</text>
</g>
<!-- Weekly_Readings&#45;&gt;Educational_Modelling_Languages -->
<g id="edge10" class="edge"><title>Weekly_Readings&#45;&gt;Educational_Modelling_Languages</title>
<path fill="none" stroke="black" d="M362.095,-341.038C373.957,-337.652 386.368,-334.166 398,-331 405.747,-328.892 413.828,-326.736 421.916,-324.608"/>
<polygon fill="black" stroke="black" points="422.975,-327.949 431.763,-322.031 421.202,-321.177 422.975,-327.949"/>
</g>
<!-- IMS_Learning_Design -->
<g id="node12" class="node"><title>IMS_Learning_Design</title>
<polygon fill="mediumspringgreen" stroke="black" points="574,-376 432,-376 432,-340 574,-340 574,-376"/>
<text text-anchor="middle" x="503" y="-354.9" font-family="Times Roman,serif" font-size="14.00">IMS_Learning_Design</text>
</g>
<!-- Weekly_Readings&#45;&gt;IMS_Learning_Design -->
<g id="edge11" class="edge"><title>Weekly_Readings&#45;&gt;IMS_Learning_Design</title>
<path fill="none" stroke="black" d="M362.094,-358C380.741,-358 401.749,-358 421.74,-358"/>
<polygon fill="black" stroke="black" points="421.769,-361.5 431.769,-358 421.769,-354.5 421.769,-361.5"/>
</g>
<!-- Assessment_Design -->
<g id="node13" class="node"><title>Assessment_Design</title>
<polygon fill="violet" stroke="black" points="566,-430 440,-430 440,-394 566,-394 566,-430"/>
<text text-anchor="middle" x="503" y="-408.9" font-family="Times Roman,serif" font-size="14.00">Assessment_Design</text>
</g>
<!-- Weekly_Readings&#45;&gt;Assessment_Design -->
<g id="edge12" class="edge"><title>Weekly_Readings&#45;&gt;Assessment_Design</title>
<path fill="none" stroke="black" d="M362.095,-374.962C373.957,-378.348 386.368,-381.834 398,-385 408.359,-387.819 419.315,-390.722 430.087,-393.532"/>
<polygon fill="black" stroke="black" points="429.347,-396.956 439.905,-396.081 431.106,-390.181 429.347,-396.956"/>
</g>
<!-- Meta_Design -->
<g id="node14" class="node"><title>Meta_Design</title>
<polygon fill="plum" stroke="black" points="548,-484 458,-484 458,-448 548,-448 548,-484"/>
<text text-anchor="middle" x="503" y="-462.9" font-family="Times Roman,serif" font-size="14.00">Meta_Design</text>
</g>
<!-- Weekly_Readings&#45;&gt;Meta_Design -->
<g id="edge13" class="edge"><title>Weekly_Readings&#45;&gt;Meta_Design</title>
<path fill="none" stroke="black" d="M320.203,-376.206C337.642,-394.695 367.069,-422.839 398,-439 413.335,-447.012 431.195,-452.752 447.789,-456.817"/>
<polygon fill="black" stroke="black" points="447.396,-460.318 457.925,-459.138 448.958,-453.494 447.396,-460.318"/>
</g>
<!-- Learning_Design_Tools -->
<g id="node15" class="node"><title>Learning_Design_Tools</title>
<polygon fill="sandybrown" stroke="black" points="577,-538 429,-538 429,-502 577,-502 577,-538"/>
<text text-anchor="middle" x="503" y="-516.9" font-family="Times Roman,serif" font-size="14.00">Learning_Design_Tools</text>
</g>
<!-- Weekly_Readings&#45;&gt;Learning_Design_Tools -->
<g id="edge14" class="edge"><title>Weekly_Readings&#45;&gt;Learning_Design_Tools</title>
<path fill="none" stroke="black" d="M311.667,-376.437C324.841,-405.779 354.607,-462.857 398,-493 404.594,-497.581 411.906,-501.384 419.513,-504.543"/>
<polygon fill="black" stroke="black" points="418.319,-507.833 428.91,-508.084 420.787,-501.283 418.319,-507.833"/>
</g>
<!-- Collaboration_Design -->
<g id="node16" class="node"><title>Collaboration_Design</title>
<polygon fill="wheat" stroke="black" points="571,-592 435,-592 435,-556 571,-556 571,-592"/>
<text text-anchor="middle" x="503" y="-570.9" font-family="Times Roman,serif" font-size="14.00">Collaboration_Design</text>
</g>
<!-- Weekly_Readings&#45;&gt;Collaboration_Design -->
<g id="edge15" class="edge"><title>Weekly_Readings&#45;&gt;Collaboration_Design</title>
<path fill="none" stroke="black" d="M307.736,-376.251C316.47,-414.142 341.886,-501.578 398,-547 406.038,-553.506 415.462,-558.464 425.307,-562.237"/>
<polygon fill="black" stroke="black" points="424.249,-565.574 434.843,-565.504 426.517,-558.952 424.249,-565.574"/>
</g>
<!-- Uptake -->
<g id="node17" class="node"><title>Uptake</title>
<polygon fill="turquoise" stroke="black" points="531,-646 475,-646 475,-610 531,-610 531,-646"/>
<text text-anchor="middle" x="503" y="-624.9" font-family="Times Roman,serif" font-size="14.00">Uptake</text>
</g>
<!-- Weekly_Readings&#45;&gt;Uptake -->
<g id="edge16" class="edge"><title>Weekly_Readings&#45;&gt;Uptake</title>
<path fill="none" stroke="black" d="M305.488,-376.084C310.2,-421.208 328.865,-539.541 398,-601 416.216,-617.194 442.869,-623.913 464.763,-626.6"/>
<polygon fill="black" stroke="black" points="464.457,-630.087 474.755,-627.594 465.151,-623.121 464.457,-630.087"/>
</g>
<!-- Conole_Jones_2010 -->
<g id="node21" class="node"><title>Conole_Jones_2010</title>
<polygon fill="lavender" stroke="black" points="897,-106 771,-106 771,-70 897,-70 897,-106"/>
<text text-anchor="middle" x="834" y="-84.9" font-family="Times Roman,serif" font-size="14.00">Conole_Jones_2010</text>
</g>
<!-- Designs_as_Knowledge_Objects&#45;&gt;Conole_Jones_2010 -->
<g id="edge20" class="edge"><title>Designs_as_Knowledge_Objects&#45;&gt;Conole_Jones_2010</title>
<path fill="none" stroke="black" d="M600.521,-88C651.687,-88 713.346,-88 760.448,-88"/>
<polygon fill="black" stroke="black" points="760.572,-91.5001 770.572,-88 760.571,-84.5001 760.572,-91.5001"/>
</g>
<!-- Nicolini_Mengis_Swan_2012 -->
<g id="node22" class="node"><title>Nicolini_Mengis_Swan_2012</title>
<polygon fill="lavender" stroke="black" points="923,-52 745,-52 745,-16 923,-16 923,-52"/>
<text text-anchor="middle" x="834" y="-30.9" font-family="Times Roman,serif" font-size="14.00">Nicolini_Mengis_Swan_2012</text>
</g>
<!-- Designs_as_Knowledge_Objects&#45;&gt;Nicolini_Mengis_Swan_2012 -->
<g id="edge21" class="edge"><title>Designs_as_Knowledge_Objects&#45;&gt;Nicolini_Mengis_Swan_2012</title>
<path fill="none" stroke="black" d="M587.632,-69.9645C603.662,-66.7912 620.32,-63.6578 636,-61 667.791,-55.6114 702.596,-50.5767 734.036,-46.3491"/>
<polygon fill="black" stroke="black" points="734.668,-49.796 744.118,-45.0055 733.743,-42.8573 734.668,-49.796"/>
</g>
<!-- Seel_Lehmann_Blumschein_Podolskiy_2017 -->
<g id="node25" class="node"><title>Seel_Lehmann_Blumschein_Podolskiy_2017</title>
<polygon fill="lightsalmon" stroke="black" points="966,-160 702,-160 702,-124 966,-124 966,-160"/>
<text text-anchor="middle" x="834" y="-138.9" font-family="Times Roman,serif" font-size="14.00">Seel_Lehmann_Blumschein_Podolskiy_2017</text>
</g>
<!-- Instructional_Design&#45;&gt;Seel_Lehmann_Blumschein_Podolskiy_2017 -->
<g id="edge24" class="edge"><title>Instructional_Design&#45;&gt;Seel_Lehmann_Blumschein_Podolskiy_2017</title>
<path fill="none" stroke="black" d="M568,-142C603.283,-142 648.374,-142 691.365,-142"/>
<polygon fill="black" stroke="black" points="691.368,-145.5 701.368,-142 691.368,-138.5 691.368,-145.5"/>
</g>
<!-- Falconer_Beetham_Oliver_Lockyer_Littlejohn_2007 -->
<g id="node28" class="node"><title>Falconer_Beetham_Oliver_Lockyer_Littlejohn_2007</title>
<polygon fill="gold" stroke="black" points="987,-214 681,-214 681,-178 987,-178 987,-214"/>
<text text-anchor="middle" x="834" y="-192.9" font-family="Times Roman,serif" font-size="14.00">Falconer_Beetham_Oliver_Lockyer_Littlejohn_2007</text>
</g>
<!-- Design_Representations_Overview&#45;&gt;Falconer_Beetham_Oliver_Lockyer_Littlejohn_2007 -->
<g id="edge27" class="edge"><title>Design_Representations_Overview&#45;&gt;Falconer_Beetham_Oliver_Lockyer_Littlejohn_2007</title>
<path fill="none" stroke="black" d="M607.276,-196C627.479,-196 649.1,-196 670.671,-196"/>
<polygon fill="black" stroke="black" points="670.91,-199.5 680.91,-196 670.91,-192.5 670.91,-199.5"/>
</g>
<!-- McAndrew_Goodyear_Dalziel_2006 -->
<g id="node31" class="node"><title>McAndrew_Goodyear_Dalziel_2006</title>
<polygon fill="#b3ee3a" stroke="black" points="943,-268 725,-268 725,-232 943,-232 943,-268"/>
<text text-anchor="middle" x="834" y="-246.9" font-family="Times Roman,serif" font-size="14.00">McAndrew_Goodyear_Dalziel_2006</text>
</g>
<!-- Design_Patterns&#45;&gt;McAndrew_Goodyear_Dalziel_2006 -->
<g id="edge30" class="edge"><title>Design_Patterns&#45;&gt;McAndrew_Goodyear_Dalziel_2006</title>
<path fill="none" stroke="black" d="M555.814,-250C598.513,-250 660.269,-250 714.753,-250"/>
<polygon fill="black" stroke="black" points="714.836,-253.5 724.836,-250 714.836,-246.5 714.836,-253.5"/>
</g>
<!-- CaeiroRodriguez_2008 -->
<g id="node34" class="node"><title>CaeiroRodriguez_2008</title>
<polygon fill="darkkhaki" stroke="black" points="905,-322 763,-322 763,-286 905,-286 905,-322"/>
<text text-anchor="middle" x="834" y="-300.9" font-family="Times Roman,serif" font-size="14.00">CaeiroRodriguez_2008</text>
</g>
<!-- Educational_Modelling_Languages&#45;&gt;CaeiroRodriguez_2008 -->
<g id="edge33" class="edge"><title>Educational_Modelling_Languages&#45;&gt;CaeiroRodriguez_2008</title>
<path fill="none" stroke="black" d="M608.185,-304C654.714,-304 708.612,-304 752.079,-304"/>
<polygon fill="black" stroke="black" points="752.323,-307.5 762.323,-304 752.323,-300.5 752.323,-307.5"/>
</g>
<!-- Tattersall_Sodhi_Burgos_Kopeer_2008 -->
<g id="node37" class="node"><title>Tattersall_Sodhi_Burgos_Kopeer_2008</title>
<polygon fill="mediumspringgreen" stroke="black" points="950,-376 718,-376 718,-340 950,-340 950,-376"/>
<text text-anchor="middle" x="834" y="-354.9" font-family="Times Roman,serif" font-size="14.00">Tattersall_Sodhi_Burgos_Kopeer_2008</text>
</g>
<!-- IMS_Learning_Design&#45;&gt;Tattersall_Sodhi_Burgos_Kopeer_2008 -->
<g id="edge36" class="edge"><title>IMS_Learning_Design&#45;&gt;Tattersall_Sodhi_Burgos_Kopeer_2008</title>
<path fill="none" stroke="black" d="M574.008,-358C612.949,-358 662.385,-358 707.671,-358"/>
<polygon fill="black" stroke="black" points="707.868,-361.5 717.868,-358 707.868,-354.5 707.868,-361.5"/>
</g>
<!-- Mislevy_Almond_Lukas_2003 -->
<g id="node40" class="node"><title>Mislevy_Almond_Lukas_2003</title>
<polygon fill="violet" stroke="black" points="927,-430 741,-430 741,-394 927,-394 927,-430"/>
<text text-anchor="middle" x="834" y="-408.9" font-family="Times Roman,serif" font-size="14.00">Mislevy_Almond_Lukas_2003</text>
</g>
<!-- Assessment_Design&#45;&gt;Mislevy_Almond_Lukas_2003 -->
<g id="edge39" class="edge"><title>Assessment_Design&#45;&gt;Mislevy_Almond_Lukas_2003</title>
<path fill="none" stroke="black" d="M566.038,-412C612.294,-412 676.156,-412 729.933,-412"/>
<polygon fill="black" stroke="black" points="730.197,-415.5 740.197,-412 730.197,-408.5 730.197,-415.5"/>
</g>
<!-- Riscontente_Mislevy_Hamel_PADI_2005 -->
<g id="node41" class="node"><title>Riscontente_Mislevy_Hamel_PADI_2005</title>
<polygon fill="violet" stroke="black" points="958,-484 710,-484 710,-448 958,-448 958,-484"/>
<text text-anchor="middle" x="834" y="-462.9" font-family="Times Roman,serif" font-size="14.00">Riscontente_Mislevy_Hamel_PADI_2005</text>
</g>
<!-- Assessment_Design&#45;&gt;Riscontente_Mislevy_Hamel_PADI_2005 -->
<g id="edge40" class="edge"><title>Assessment_Design&#45;&gt;Riscontente_Mislevy_Hamel_PADI_2005</title>
<path fill="none" stroke="black" d="M566.099,-425.68C588.155,-430.23 613.119,-435.122 636,-439 656.596,-442.491 678.458,-445.834 699.85,-448.904"/>
<polygon fill="black" stroke="black" points="699.578,-452.401 709.971,-450.342 700.563,-445.471 699.578,-452.401"/>
</g>
<!-- Fischer_Hermann_2014 -->
<g id="node48" class="node"><title>Fischer_Hermann_2014</title>
<polygon fill="plum" stroke="black" points="908,-538 760,-538 760,-502 908,-502 908,-538"/>
<text text-anchor="middle" x="834" y="-516.9" font-family="Times Roman,serif" font-size="14.00">Fischer_Hermann_2014</text>
</g>
<!-- Meta_Design&#45;&gt;Fischer_Hermann_2014 -->
<g id="edge47" class="edge"><title>Meta_Design&#45;&gt;Fischer_Hermann_2014</title>
<path fill="none" stroke="black" d="M548.11,-475.913C573.795,-481.368 606.614,-488.019 636,-493 673.047,-499.28 714.188,-505.079 749.327,-509.68"/>
<polygon fill="black" stroke="black" points="749.181,-513.19 759.548,-511.006 750.082,-506.248 749.181,-513.19"/>
</g>
<!-- Rabardel_Beguin_2005 -->
<g id="node49" class="node"><title>Rabardel_Beguin_2005</title>
<polygon fill="plum" stroke="black" points="906,-592 762,-592 762,-556 906,-556 906,-592"/>
<text text-anchor="middle" x="834" y="-570.9" font-family="Times Roman,serif" font-size="14.00">Rabardel_Beguin_2005</text>
</g>
<!-- Meta_Design&#45;&gt;Rabardel_Beguin_2005 -->
<g id="edge48" class="edge"><title>Meta_Design&#45;&gt;Rabardel_Beguin_2005</title>
<path fill="none" stroke="black" d="M548.055,-466.997C570.842,-469.722 597.511,-476.609 616,-493 635.151,-509.978 616.032,-530.991 636,-547 667.929,-572.599 712.472,-580.34 751.226,-581.244"/>
<polygon fill="black" stroke="black" points="751.434,-584.746 761.463,-581.331 751.493,-577.746 751.434,-584.746"/>
</g>
<!-- Ljubojevic_Laurillard_2010 -->
<g id="node52" class="node"><title>Ljubojevic_Laurillard_2010</title>
<polygon fill="sandybrown" stroke="black" points="919,-646 749,-646 749,-610 919,-610 919,-646"/>
<text text-anchor="middle" x="834" y="-624.9" font-family="Times Roman,serif" font-size="14.00">Ljubojevic_Laurillard_2010</text>
</g>
<!-- Learning_Design_Tools&#45;&gt;Ljubojevic_Laurillard_2010 -->
<g id="edge51" class="edge"><title>Learning_Design_Tools&#45;&gt;Ljubojevic_Laurillard_2010</title>
<path fill="none" stroke="black" d="M577.077,-526.777C591.25,-530.927 605.057,-537.299 616,-547 635.151,-563.978 616.032,-584.991 636,-601 664.454,-623.813 702.927,-632.443 738.392,-634.692"/>
<polygon fill="black" stroke="black" points="738.642,-638.207 748.795,-635.179 738.969,-631.215 738.642,-638.207"/>
</g>
<!-- Sobreira_Tchounikine_2012 -->
<g id="node44" class="node"><title>Sobreira_Tchounikine_2012</title>
<polygon fill="wheat" stroke="black" points="919,-754 749,-754 749,-718 919,-718 919,-754"/>
<text text-anchor="middle" x="834" y="-732.9" font-family="Times Roman,serif" font-size="14.00">Sobreira_Tchounikine_2012</text>
</g>
<!-- Collaboration_Design&#45;&gt;Sobreira_Tchounikine_2012 -->
<g id="edge43" class="edge"><title>Collaboration_Design&#45;&gt;Sobreira_Tchounikine_2012</title>
<path fill="none" stroke="black" d="M571.095,-577.408C587.768,-581.417 604.193,-588.569 616,-601 649.619,-636.394 600.67,-675.313 636,-709 662.852,-734.604 701.824,-743.528 738.103,-745.239"/>
<polygon fill="black" stroke="black" points="738.153,-748.742 748.252,-745.538 738.359,-741.745 738.153,-748.742"/>
</g>
<!-- RodríguezTriana_MartínezMonés_AsenioPérez_Dimitriadis_2015 -->
<g id="node45" class="node"><title>RodríguezTriana_MartínezMonés_AsenioPérez_Dimitriadis_2015</title>
<polygon fill="wheat" stroke="black" points="1024,-700 644,-700 644,-664 1024,-664 1024,-700"/>
<text text-anchor="middle" x="834" y="-678.9" font-family="Times Roman,serif" font-size="14.00">RodríguezTriana_MartínezMonés_AsenioPérez_Dimitriadis_2015</text>
</g>
<!-- Collaboration_Design&#45;&gt;RodríguezTriana_MartínezMonés_AsenioPérez_Dimitriadis_2015 -->
<g id="edge44" class="edge"><title>Collaboration_Design&#45;&gt;RodríguezTriana_MartínezMonés_AsenioPérez_Dimitriadis_2015</title>
<path fill="none" stroke="black" d="M571.199,-579.184C587.386,-583.233 603.548,-589.961 616,-601 635.151,-617.978 616.032,-638.991 636,-655 637.396,-656.119 638.815,-657.204 640.258,-658.256"/>
<polygon fill="black" stroke="black" points="638.493,-661.285 648.755,-663.922 642.377,-655.462 638.493,-661.285"/>
</g>
<!-- Dagnino_Dimitriadis_AsensioPérez_Pozzi_2018 -->
<g id="node55" class="node"><title>Dagnino_Dimitriadis_AsensioPérez_Pozzi_2018</title>
<polygon fill="turquoise" stroke="black" points="975,-808 693,-808 693,-772 975,-772 975,-808"/>
<text text-anchor="middle" x="834" y="-786.9" font-family="Times Roman,serif" font-size="14.00">Dagnino_Dimitriadis_AsensioPérez_Pozzi_2018</text>
</g>
<!-- Uptake&#45;&gt;Dagnino_Dimitriadis_AsensioPérez_Pozzi_2018 -->
<g id="edge54" class="edge"><title>Uptake&#45;&gt;Dagnino_Dimitriadis_AsensioPérez_Pozzi_2018</title>
<path fill="none" stroke="black" d="M514.788,-646.132C535.377,-676.118 580.985,-735.455 636,-763 650.451,-770.235 666.198,-775.731 682.292,-779.882"/>
<polygon fill="black" stroke="black" points="681.808,-783.365 692.349,-782.296 683.442,-776.558 681.808,-783.365"/>
</g>
</g>

<g transform="translate(0.000000,17.000000) scale(0.100000,-0.100000)"
fill="#000000" stroke="none">
<path d="M21 157 c-29 -35 -16 -97 20 -97 15 0 19 -5 15 -16 -3 -9 -6 -20 -6
-25 0 -5 -4 -9 -10 -9 -14 0 -12 27 3 33 6 3 2 6 -10 6 -30 1 -31 -35 -3 -44
28 -9 47 9 55 51 3 20 9 42 12 50 3 8 -1 14 -11 14 -9 0 -16 -8 -16 -19 0 -26
-15 -34 -30 -16 -13 16 -6 48 16 70 14 13 13 15 -4 15 -11 0 -25 -6 -31 -13z"/>
<path d="M80 150 c0 -13 5 -20 13 -17 6 2 12 10 12 17 0 7 -6 15 -12 18 -8 2
-13 -5 -13 -18z"/>
<path d="M347 164 c-13 -13 -7 -24 14 -24 11 0 19 5 17 12 -5 14 -22 21 -31
12z"/>
<path d="M103 85 c-9 -40 -8 -45 8 -45 13 0 19 9 21 33 2 24 7 31 21 29 10 -2
17 3 17 13 0 10 -9 15 -28 15 -26 0 -30 -5 -39 -45z"/>
<path d="M175 101 c-24 -48 -13 -59 64 -60 63 -1 69 1 79 25 15 31 15 64 1 64
-6 0 -8 -8 -5 -18 4 -10 -1 -27 -10 -38 -14 -18 -15 -17 -9 19 5 29 3 37 -9
37 -9 0 -18 -13 -22 -35 -3 -19 -10 -35 -14 -35 -4 0 -4 16 0 35 8 35 8 35
-26 35 -27 0 -36 -6 -49 -29z m47 -6 c-5 -28 -22 -44 -22 -21 0 21 11 46 20
46 4 0 5 -11 2 -25z"/>
<path d="M340 116 c0 -7 -3 -28 -6 -45 -6 -26 -3 -31 13 -31 10 0 25 6 32 12
11 10 13 10 7 1 -5 -9 3 -13 28 -13 25 0 36 4 36 15 0 8 -4 15 -10 15 -5 0
-10 -4 -10 -10 0 -5 -5 -10 -11 -10 -6 0 -2 12 9 28 36 51 36 52 -2 52 -25 0
-36 -4 -36 -15 0 -8 5 -15 10 -15 6 0 10 5 10 12 0 6 3 9 6 6 9 -10 -19 -46
-39 -52 -17 -4 -18 -1 -13 30 6 27 4 34 -9 34 -8 0 -15 -6 -15 -14z"/>
<path d="M472 118 c-7 -7 -12 -27 -12 -46 0 -30 2 -33 27 -30 17 2 32 12 39
27 7 13 18 28 26 33 10 8 9 8 -4 4 -12 -3 -18 0 -18 9 0 18 -41 20 -58 3z m29
-51 c-13 -13 -15 11 -4 40 7 16 8 15 11 -6 2 -13 -1 -28 -7 -34z"/>
</g>
</svg>
