<?xml version="1.0" encoding="UTF-8" standalone="no"?><svg xmlns="http://www.w3.org/2000/svg" xmlns:xlink="http://www.w3.org/1999/xlink" contentScriptType="application/ecmascript" contentStyleType="text/css" height="354px" preserveAspectRatio="none" style="width:308px;height:354px;" version="1.1" viewBox="0 0 308 354" width="308px" zoomAndPan="magnify"><defs><filter height="300%" id="feevxdm" width="300%" x="-1" y="-1"><feGaussianBlur result="blurOut" stdDeviation="2.0"/><feColorMatrix in="blurOut" result="blurOut2" type="matrix" values="0 0 0 0 0 0 0 0 0 0 0 0 0 0 0 0 0 0 .4 0"/><feOffset dx="4.0" dy="4.0" in="blurOut2" result="blurOut3"/><feBlend in="SourceGraphic" in2="blurOut3" mode="normal"/></filter></defs><g><ellipse cx="60" cy="18" fill="#000000" filter="url(#feevxdm)" rx="10" ry="10" style="stroke: none; stroke-width: 1.0;"/><rect fill="#F8F8F8" filter="url(#feevxdm)" height="33.9629" rx="12.5" ry="12.5" style="stroke: #383838; stroke-width: 1.5;" width="88" x="16" y="70"/><text fill="#000000" font-family="sans-serif" font-size="12" lengthAdjust="spacingAndGlyphs" textLength="68" x="26" y="91.4023">Initialization</text><polygon fill="#F8F8F8" filter="url(#feevxdm)" points="60,151,72,163,60,175,48,163,60,151" style="stroke: #383838; stroke-width: 1.5;"/><rect fill="#F8F8F8" filter="url(#feevxdm)" height="33.9629" rx="12.5" ry="12.5" style="stroke: #383838; stroke-width: 1.5;" width="95" x="13" y="236"/><text fill="#000000" font-family="sans-serif" font-size="12" lengthAdjust="spacingAndGlyphs" textLength="75" x="23" y="257.4023">Some Activity</text><rect fill="#F8F8F8" filter="url(#feevxdm)" height="33.9629" rx="12.5" ry="12.5" style="stroke: #383838; stroke-width: 1.5;" width="108" x="6" y="312"/><text fill="#000000" font-family="sans-serif" font-size="12" lengthAdjust="spacingAndGlyphs" textLength="88" x="16" y="333.4023">Another activity</text><rect fill="#F8F8F8" filter="url(#feevxdm)" height="33.9629" rx="12.5" ry="12.5" style="stroke: #383838; stroke-width: 1.5;" width="46" x="127" y="236"/><text fill="#000000" font-family="sans-serif" font-size="12" lengthAdjust="spacingAndGlyphs" textLength="26" x="137" y="257.4023">right</text><ellipse cx="223" cy="253" fill="none" filter="url(#feevxdm)" rx="10" ry="10" style="stroke: #000000; stroke-width: 1.0;"/><ellipse cx="223.5" cy="253.5" fill="#000000" rx="6" ry="6" style="stroke: none; stroke-width: 1.0;"/><rect fill="#F8F8F8" filter="url(#feevxdm)" height="33.9629" rx="12.5" ry="12.5" style="stroke: #383838; stroke-width: 1.5;" width="106" x="170" y="146"/><text fill="#000000" font-family="sans-serif" font-size="12" lengthAdjust="spacingAndGlyphs" textLength="86" x="180" y="167.4023">Something else</text><path d="M60,28.181 C60,37.759 60,52.425 60,64.716 " fill="none" style="stroke: #383838; stroke-width: 1.0;"/><polygon fill="#383838" points="60,69.816,64,60.816,60,64.816,56,60.816,60,69.816" style="stroke: #383838; stroke-width: 1.0;"/><path d="M60,104.246 C60,116.662 60,133.342 60,145.757 " fill="none" style="stroke: #383838; stroke-width: 1.0;"/><polygon fill="#383838" points="60,150.792,64,141.792,60,145.792,56,141.792,60,150.792" style="stroke: #383838; stroke-width: 1.0;"/><text fill="#000000" font-family="sans-serif" font-size="11" lengthAdjust="spacingAndGlyphs" textLength="55" x="37.0879" y="140.739">Some Test</text><path d="M60,175.138 C60,189.313 60,213.054 60,230.602 " fill="none" style="stroke: #383838; stroke-width: 1.0;"/><polygon fill="#383838" points="60,235.832,64,226.832,60,230.832,56,226.832,60,235.832" style="stroke: #383838; stroke-width: 1.0;"/><text fill="#000000" font-family="sans-serif" font-size="11" lengthAdjust="spacingAndGlyphs" textLength="22" x="61" y="211.9521">true</text><path d="M60,270.2456 C60,281.0315 60,295.0355 60,306.666 " fill="none" style="stroke: #383838; stroke-width: 1.0;"/><polygon fill="#383838" points="60,311.8227,64,302.8227,60,306.8227,56,302.8227,60,311.8227" style="stroke: #383838; stroke-width: 1.0;"/><path d="M173.098,253 C184.592,253 196.087,253 207.582,253 " fill="none" style="stroke: #383838; stroke-width: 1.0;"/><polygon fill="#383838" points="212.864,253,203.864,249,207.864,253,203.864,257,212.864,253" style="stroke: #383838; stroke-width: 1.0;"/><path d="M72.2515,163 C91.7186,163 130.948,163 164.507,163 " fill="none" style="stroke: #383838; stroke-width: 1.0;"/><polygon fill="#383838" points="169.841,163,160.841,159,164.841,163,160.841,167,169.841,163" style="stroke: #383838; stroke-width: 1.0;"/><text fill="#000000" font-family="sans-serif" font-size="11" lengthAdjust="spacingAndGlyphs" textLength="25" x="108" y="159.4521">false</text><path d="M223,180.353 C223,197.058 223,222.061 223,237.947 " fill="none" style="stroke: #383838; stroke-width: 1.0;"/><polygon fill="#383838" points="223,242.96,227,233.96,223,237.96,219,233.96,223,242.96" style="stroke: #383838; stroke-width: 1.0;"/><text fill="#000000" font-family="sans-serif" font-size="11" lengthAdjust="spacingAndGlyphs" textLength="83" x="224" y="211.9521">Ending process</text></g>
<g transform="translate(0.000000,17.000000) scale(0.100000,-0.100000)"
fill="#000000" stroke="none">
<path d="M21 157 c-29 -35 -16 -97 20 -97 15 0 19 -5 15 -16 -3 -9 -6 -20 -6
-25 0 -5 -4 -9 -10 -9 -14 0 -12 27 3 33 6 3 2 6 -10 6 -30 1 -31 -35 -3 -44
28 -9 47 9 55 51 3 20 9 42 12 50 3 8 -1 14 -11 14 -9 0 -16 -8 -16 -19 0 -26
-15 -34 -30 -16 -13 16 -6 48 16 70 14 13 13 15 -4 15 -11 0 -25 -6 -31 -13z"/>
<path d="M80 150 c0 -13 5 -20 13 -17 6 2 12 10 12 17 0 7 -6 15 -12 18 -8 2
-13 -5 -13 -18z"/>
<path d="M347 164 c-13 -13 -7 -24 14 -24 11 0 19 5 17 12 -5 14 -22 21 -31
12z"/>
<path d="M103 85 c-9 -40 -8 -45 8 -45 13 0 19 9 21 33 2 24 7 31 21 29 10 -2
17 3 17 13 0 10 -9 15 -28 15 -26 0 -30 -5 -39 -45z"/>
<path d="M175 101 c-24 -48 -13 -59 64 -60 63 -1 69 1 79 25 15 31 15 64 1 64
-6 0 -8 -8 -5 -18 4 -10 -1 -27 -10 -38 -14 -18 -15 -17 -9 19 5 29 3 37 -9
37 -9 0 -18 -13 -22 -35 -3 -19 -10 -35 -14 -35 -4 0 -4 16 0 35 8 35 8 35
-26 35 -27 0 -36 -6 -49 -29z m47 -6 c-5 -28 -22 -44 -22 -21 0 21 11 46 20
46 4 0 5 -11 2 -25z"/>
<path d="M340 116 c0 -7 -3 -28 -6 -45 -6 -26 -3 -31 13 -31 10 0 25 6 32 12
11 10 13 10 7 1 -5 -9 3 -13 28 -13 25 0 36 4 36 15 0 8 -4 15 -10 15 -5 0
-10 -4 -10 -10 0 -5 -5 -10 -11 -10 -6 0 -2 12 9 28 36 51 36 52 -2 52 -25 0
-36 -4 -36 -15 0 -8 5 -15 10 -15 6 0 10 5 10 12 0 6 3 9 6 6 9 -10 -19 -46
-39 -52 -17 -4 -18 -1 -13 30 6 27 4 34 -9 34 -8 0 -15 -6 -15 -14z"/>
<path d="M472 118 c-7 -7 -12 -27 -12 -46 0 -30 2 -33 27 -30 17 2 32 12 39
27 7 13 18 28 26 33 10 8 9 8 -4 4 -12 -3 -18 0 -18 9 0 18 -41 20 -58 3z m29
-51 c-13 -13 -15 11 -4 40 7 16 8 15 11 -6 2 -13 -1 -28 -7 -34z"/>
</g>
</svg>